# xmcd
#
# Track frame offsets:
# 150
# 21453
# 44721
# 63634
# 85299
# 104316
# 127844
# 146844
# 166335
# 185468
# 206908
# 224745
# 245627
# 264830
# 286853
# 305706
#
# Disc length: 4364 seconds
#
#
# Revision: 0
# Processed by: cddbd v1.4PL0 Copyright (c) Steve Scherf et al.
# Submitted via: FreeRIP 2.00 
#
DISCID=00110a10
DTITLE=那英 - 如月
DYEAR=1900
DGENRE=
TTITLE0=如今
TTITLE1=愛上你等於愛上寂寞 
TTITLE2=至少
TTITLE3=離不開
TTITLE4=一千一萬遍
TTITLE5=你從未離開
TTITLE6=no more
TTITLE7=一切都變了
TTITLE8=身不由己
TTITLE9=留言
TTITLE10=我只喜歡你
TTITLE11=一笑而過
TTITLE12=我不是天使
TTITLE13=征服
TTITLE14=夢醒了
TTITLE15=愛要有你才完美
EXTD=
EXTT0=
EXTT1=
EXTT2=
EXTT3=
EXTT4=
EXTT5=
EXTT6=
EXTT7=
EXTT8=
EXTT9=
EXTT10=
EXTT11=
EXTT12=
EXTT13=
EXTT14=
EXTT15=
PLAYORDER=
